<?xml version="1.0" encoding="UTF-8"?><svg id="Layer_1" xmlns="http://www.w3.org/2000/svg" viewBox="0 0 513.81 516.93"><defs><style>.cls-1{fill:#fff;}.cls-2{fill:#414042;}</style></defs><path class="cls-1" d="m497.65,260.59c0,132.5-107.41,239.91-239.91,239.91S17.83,393.09,17.83,260.59,125.24,20.68,257.74,20.68c82.81,0,131.46,48,174.58,111.82,9.24,13.68,31.35,3.4,42.67,16,8.37,9.32-9.25,17.82-10.67,32-1.78,17.78,10.66,10.42,17.78,18.67s-1.18,29.41.89,40c2.44,12.47,14.67,14.41,14.67,21.42Z"/><path class="cls-2" style="fill: #772ce8;" d="m167.1,70.51c-12.59,6.22-24.27,14.48-34.45,24.79-40.53,41.03-37.16,90.76-36.39,143.93.54,37.72-1.11,75.76-9.69,112.62-2.55,10.95-5.72,21.96-5.23,33.2s5.45,23.03,15.36,28.32c11.04,5.9,24.63,2.31,36.24-2.37s23.68-10.47,36.05-8.56c18.81,2.91,30.41,22.05,47.28,30.89,13.6,7.12,30.8,6.88,44.19-.63,22.57-12.66,42.11-41.78,71.96-26.57,8.1,4.13,14.18,11.41,22.01,16.04,13.17,7.79,30.15,7.13,44.22,1.11,20.1-8.61,36.54-25.91,44.24-46.42,4.26-11.35,5.06-24.41-.03-35.41-7.05-15.25-23.72-23.68-39.99-27.84-24.54-6.27-52.76-6.89-72.9-24.28-8.85-7.64-15.37-17.96-18.46-29.24-1.83-6.66-2.41-14.06.65-20.26,4.89-9.92,17.08-13.49,28-15.29,44.15-7.27,100.01-10.88,142.21,6.57,9.12,3.77,18.07,8.95,23.67,17.07,6.26,9.08,7.53,20.64,7.76,31.67,2.23,110.52-86.78,205.97-191.05,230.58-117.22,27.67-246.2-35.36-298.04-144.03-33.18-69.56-33.06-154.38,1.32-223.35C61.63,71.56,135.29,25.6,212.1,10.42,287.5-4.48,366.96-.16,443.35,3.74c17.3.88,40.61,3.16,47.36,22.09s-2.75,40.44-14.32,54.9c-14.66,18.31-33.39,33.55-54.88,42.95-13.62,5.96-28.82,9.56-43.39,6.62-25.25-5.09-42.36-27.74-62.4-43.92-41.83-33.77-101.57-39.11-148.62-15.88Z"/><circle class="cls-1" cx="479.05" cy="137.61" r="7.33"/><circle class="cls-1" cx="493.13" cy="133.94" r="3.67"/><ellipse class="cls-2" cx="212.83" cy="181.74" rx="26.6" ry="36.8"/><ellipse class="cls-2" cx="140.97" cy="189.35" rx="26.6" ry="36.8"/></svg>